<svg xmlns="http://www.w3.org/2000/svg" width="640" height="640" viewBox="0 0 640 640">
  <path id="sync" d="M160-160v-80H270l-16-14q-52-46-73-105T160-478q0-111,66.5-197.5T400-790v84q-72,26-116,88.5T240-478a233.582,233.582,0,0,0,17,87.5Q274-348,310-312l10,10v-98h80v240Zm400-10v-84q72-26,116-88.5T720-482a233.582,233.582,0,0,0-17-87.5Q686-612,650-648l-10-10v98H560V-800H800v80H690l16,14q49,49,71.5,106.5A319.892,319.892,0,0,1,800-482q0,111-66.5,197.5T560-170Z" transform="translate(-160 800)" fill="#fff"/>
</svg>
